<?xml version="1.0" encoding="UTF-8" standalone="no"?>
<!-- Generator: Adobe Illustrator 19.0.0, SVG Export Plug-In . SVG Version: 6.00 Build 0)  -->

<svg
   version="1.1"
   id="Layer_1"
   x="0px"
   y="0px"
   viewBox="0 0 100 100"
   xml:space="preserve"
   sodipodi:docname="favorite-svgrepo-com.svg"
   width="100"
   height="100"
   inkscape:version="1.1.1 (3bf5ae0d25, 2021-09-20)"
   inkscape:export-filename="D:\daemon_website\assets\assets.png"
   inkscape:export-xdpi="96"
   inkscape:export-ydpi="96"
   xmlns:inkscape="http://www.inkscape.org/namespaces/inkscape"
   xmlns:sodipodi="http://sodipodi.sourceforge.net/DTD/sodipodi-0.dtd"
   xmlns="http://www.w3.org/2000/svg"
   xmlns:svg="http://www.w3.org/2000/svg"><defs
   id="defs38" /><sodipodi:namedview
   id="namedview36"
   pagecolor="#ffffff"
   bordercolor="#666666"
   borderopacity="1.0"
   inkscape:pageshadow="2"
   inkscape:pageopacity="0.0"
   inkscape:pagecheckerboard="0"
   showgrid="false"
   inkscape:zoom="0.87276559"
   inkscape:cx="-4.0102406"
   inkscape:cy="307.64274"
   inkscape:window-width="1920"
   inkscape:window-height="1013"
   inkscape:window-x="-9"
   inkscape:window-y="-9"
   inkscape:window-maximized="1"
   inkscape:current-layer="Layer_1" />
<g
   id="XMLID_1_"
   transform="matrix(0.24277235,0,0,0.24277235,1.1629162e-4,9.5726132e-5)">
	<path
   id="XMLID_2086_"
   style="fill:#ffd422"
   d="m 190.421,18.888 c 2.918,-5.912 8.939,-9.656 15.533,-9.656 6.594,0 12.615,3.743 15.533,9.656 l 54.26,109.943 121.33,17.63 c 6.525,0.948 11.945,5.518 13.983,11.789 2.037,6.271 0.338,13.154 -4.383,17.756 l -87.795,85.579 20.726,120.839 c 1.115,6.498 -1.557,13.066 -6.891,16.941 -5.334,3.875 -12.406,4.387 -18.242,1.318 L 205.955,343.63 97.433,400.685 c -5.836,3.068 -12.908,2.557 -18.242,-1.318 -5.334,-3.875 -8.005,-10.443 -6.891,-16.941 L 93.026,261.586 5.231,176.007 C 0.51,171.405 -1.19,164.521 0.848,158.251 2.885,151.98 8.306,147.41 14.831,146.462 l 121.33,-17.63 z" />
	<path
   id="XMLID_868_"
   style="fill:#eebf00"
   d="m 411.059,158.251 c -2.037,-6.271 -7.458,-10.841 -13.983,-11.789 l -121.33,-17.63 -54.26,-109.943 c -2.918,-5.912 -8.939,-9.656 -15.533,-9.656 -1.155,0 0,334.4 0,334.4 l 108.521,57.053 c 5.836,3.068 12.908,2.557 18.242,-1.318 5.334,-3.876 8.005,-10.443 6.891,-16.941 l -20.726,-120.84 87.795,-85.579 c 4.722,-4.603 6.421,-11.487 4.383,-17.757 z" />
</g>
<g
   id="g5">
</g>
<g
   id="g7">
</g>
<g
   id="g9">
</g>
<g
   id="g11">
</g>
<g
   id="g13">
</g>
<g
   id="g15">
</g>
<g
   id="g17">
</g>
<g
   id="g19">
</g>
<g
   id="g21">
</g>
<g
   id="g23">
</g>
<g
   id="g25">
</g>
<g
   id="g27">
</g>
<g
   id="g29">
</g>
<g
   id="g31">
</g>
<g
   id="g33">
</g>
</svg>
