<?xml version="1.0" encoding="UTF-8" standalone="no"?>
<svg
   height="200"
   viewBox="0 0 100 100"
   width="200"
   version="1.1"
   id="svg10"
   sodipodi:docname="firebase-icon.svg"
   inkscape:version="1.1.1 (3bf5ae0d25, 2021-09-20)"
   inkscape:export-filename="D:\daemon_website\art\firebase.png"
   inkscape:export-xdpi="96"
   inkscape:export-ydpi="96"
   xmlns:inkscape="http://www.inkscape.org/namespaces/inkscape"
   xmlns:sodipodi="http://sodipodi.sourceforge.net/DTD/sodipodi-0.dtd"
   xmlns="http://www.w3.org/2000/svg"
   xmlns:svg="http://www.w3.org/2000/svg">
  <defs
     id="defs14" />
  <sodipodi:namedview
     id="namedview12"
     pagecolor="#ffffff"
     bordercolor="#666666"
     borderopacity="1.0"
     inkscape:pageshadow="2"
     inkscape:pageopacity="0.0"
     inkscape:pagecheckerboard="0"
     showgrid="false"
     inkscape:zoom="1.9859757"
     inkscape:cx="-76.284922"
     inkscape:cy="56.647219"
     inkscape:window-width="1920"
     inkscape:window-height="1013"
     inkscape:window-x="-9"
     inkscape:window-y="-9"
     inkscape:window-maximized="1"
     inkscape:current-layer="svg10" />
  <g
     id="g835"
     transform="matrix(3.1239519,0,0,3.1239519,0.01520762,-8.2451671e-4)">
    <path
       d="m 19.62,11.558 -3.203,2.98 -2.972,-5.995 1.538,-3.448 c 0.4,-0.7 1.024,-0.692 1.414,0 z"
       fill="#ffa000"
       id="path2" />
    <path
       d="m 13.445,8.543 2.972,5.995 -11.97,11.135 z"
       fill="#f57f17"
       id="path4" />
    <path
       d="m 23.123,7.003 c 0.572,-0.55 1.164,-0.362 1.315,0.417 l 3.116,18.105 -10.328,6.2 c -0.36,0.2 -1.32,0.286 -1.32,0.286 0,0 -0.874,-0.104 -1.207,-0.3 L 4.447,25.673 Z"
       fill="#ffca28"
       id="path6" />
    <path
       d="M 13.445,8.543 4.448,25.673 8.455,0.638 c 0.148,-0.78 0.592,-0.855 0.988,-0.167 z"
       fill="#ffa000"
       id="path8" />
  </g>
</svg>
