<?xml version="1.0" encoding="UTF-8" standalone="no"?>
<svg
   width="200"
   height="200"
   version="1.1"
   id="svg60"
   sodipodi:docname="flutterio-icon.svg"
   inkscape:export-filename="D:\daemon_website\art\flutter.png"
   inkscape:export-xdpi="96"
   inkscape:export-ydpi="96"
   inkscape:version="1.1.1 (3bf5ae0d25, 2021-09-20)"
   xmlns:inkscape="http://www.inkscape.org/namespaces/inkscape"
   xmlns:sodipodi="http://sodipodi.sourceforge.net/DTD/sodipodi-0.dtd"
   xmlns:xlink="http://www.w3.org/1999/xlink"
   xmlns="http://www.w3.org/2000/svg"
   xmlns:svg="http://www.w3.org/2000/svg">
  <defs
     id="defs64" />
  <sodipodi:namedview
     id="namedview62"
     pagecolor="#ffffff"
     bordercolor="#666666"
     borderopacity="1.0"
     inkscape:pageshadow="2"
     inkscape:pageopacity="0.0"
     inkscape:pagecheckerboard="0"
     showgrid="false"
     inkscape:zoom="2.8085938"
     inkscape:cx="-23.67733"
     inkscape:cy="77.44089"
     inkscape:window-width="1920"
     inkscape:window-height="1013"
     inkscape:window-x="-9"
     inkscape:window-y="-9"
     inkscape:window-maximized="1"
     inkscape:current-layer="svg60" />
  <g
     transform="matrix(0.19254838,0,0,0.19254838,-3.9761252,-3.9857526)"
     id="g58">
    <defs
       id="defs3">
      <path
         id="A"
         d="M 959.4,500 679.8,779.7 959.4,1059.4 H 639.9 L 360.2,779.7 639.9,500 Z M 639.9,20.7 120.6,540 280.4,699.8 959.4,20.7 Z" />
    </defs>
    <clipPath
       id="B">
      <use
         xlink:href="#A"
         id="use5"
         x="0"
         y="0"
         width="100%"
         height="100%" />
    </clipPath>
    <g
       clip-path="url(#B)"
       id="g10">
      <path
         d="M 360.3,779.7 520,939.5 959.4,500 H 639.9 Z"
         fill="#39cefd"
         id="path8" />
    </g>
    <defs
       id="defs13">
      <path
         id="C"
         d="M 959.4,500 679.8,779.7 959.4,1059.4 H 639.9 L 360.2,779.7 639.9,500 Z M 639.9,20.7 120.6,540 280.4,699.8 959.4,20.7 Z" />
    </defs>
    <clipPath
       id="D">
      <use
         xlink:href="#C"
         id="use15"
         x="0"
         y="0"
         width="100%"
         height="100%" />
    </clipPath>
    <path
       clip-path="url(#D)"
       d="M 639.9,20.7 H 959.4 L 280.4,699.8 120.6,540 Z"
       fill="#39cefd"
       id="path18" />
    <defs
       id="defs21">
      <path
         id="E"
         d="M 959.4,500 679.8,779.7 959.4,1059.4 H 639.9 L 360.2,779.7 639.9,500 Z M 639.9,20.7 120.6,540 280.4,699.8 959.4,20.7 Z" />
    </defs>
    <clipPath
       id="F">
      <use
         xlink:href="#E"
         id="use23"
         x="0"
         y="0"
         width="100%"
         height="100%" />
    </clipPath>
    <path
       clip-path="url(#F)"
       d="m 520,939.5 119.9,119.8 H 959.4 L 679.8,779.7 Z"
       fill="#03569b"
       id="path26" />
    <defs
       id="defs29">
      <path
         id="G"
         d="M 959.4,500 679.8,779.7 959.4,1059.4 H 639.9 L 360.2,779.7 639.9,500 Z M 639.9,20.7 120.6,540 280.4,699.8 959.4,20.7 Z" />
    </defs>
    <clipPath
       id="H">
      <use
         xlink:href="#G"
         id="use31"
         x="0"
         y="0"
         width="100%"
         height="100%" />
    </clipPath>
    <linearGradient
       id="I"
       gradientUnits="userSpaceOnUse"
       x1="566.63501"
       y1="970.33899"
       x2="685.65002"
       y2="851.32397">
      <stop
         offset="0"
         stop-color="#1a237e"
         stop-opacity=".4"
         id="stop34" />
      <stop
         offset="1"
         stop-color="#1a237e"
         stop-opacity="0"
         id="stop36" />
    </linearGradient>
    <path
       clip-path="url(#H)"
       d="M 757,857.4 679.8,779.7 520,939.5 Z"
       fill="url(#I)"
       id="path39"
       style="fill:url(#I)" />
    <defs
       id="defs42">
      <path
         id="J"
         d="M 959.4,500 679.8,779.7 959.4,1059.4 H 639.9 L 360.2,779.7 639.9,500 Z M 639.9,20.7 120.6,540 280.4,699.8 959.4,20.7 Z" />
    </defs>
    <clipPath
       id="K">
      <use
         xlink:href="#J"
         id="use44"
         x="0"
         y="0"
         width="100%"
         height="100%" />
    </clipPath>
    <g
       clip-path="url(#K)"
       id="g49">
      <path
         d="M 360.282,779.645 520.086,619.84 679.9,779.645 520.086,939.45 Z"
         fill="#16b9fd"
         id="path47" />
    </g>
    <radialGradient
       id="L"
       cx="7824.6592"
       cy="-2855.979"
       r="5082.8892"
       gradientTransform="matrix(0.25,0,0,-0.25,-1812,-622.5)"
       gradientUnits="userSpaceOnUse">
      <stop
         offset="0"
         stop-color="#fff"
         stop-opacity=".1"
         id="stop51" />
      <stop
         offset="1"
         stop-color="#fff"
         stop-opacity="0"
         id="stop53" />
    </radialGradient>
    <path
       d="M 959.4,500 679.8,779.7 959.4,1059.4 H 639.9 L 360.2,779.7 639.9,500 Z M 639.9,20.7 120.6,540 280.4,699.8 959.4,20.7 Z"
       fill="url(#L)"
       id="path56"
       style="fill:url(#L)" />
  </g>
</svg>
