<?xml version="1.0" encoding="UTF-8" standalone="no"?>
<svg
   width="200"
   height="200"
   viewBox="0 0 100 100"
   version="1.1"
   id="svg4"
   sodipodi:docname="git-scm-icon.svg"
   inkscape:version="1.1.1 (3bf5ae0d25, 2021-09-20)"
   inkscape:export-filename="D:\daemon_website\art\git.png"
   inkscape:export-xdpi="96"
   inkscape:export-ydpi="96"
   xmlns:inkscape="http://www.inkscape.org/namespaces/inkscape"
   xmlns:sodipodi="http://sodipodi.sourceforge.net/DTD/sodipodi-0.dtd"
   xmlns="http://www.w3.org/2000/svg"
   xmlns:svg="http://www.w3.org/2000/svg">
  <defs
     id="defs8" />
  <sodipodi:namedview
     id="namedview6"
     pagecolor="#ffffff"
     bordercolor="#666666"
     borderopacity="1.0"
     inkscape:pageshadow="2"
     inkscape:pageopacity="0.0"
     inkscape:pagecheckerboard="0"
     showgrid="false"
     inkscape:zoom="2.8085938"
     inkscape:cx="15.844228"
     inkscape:cy="128.35605"
     inkscape:window-width="1920"
     inkscape:window-height="1013"
     inkscape:window-x="-9"
     inkscape:window-y="-9"
     inkscape:window-maximized="1"
     inkscape:current-layer="svg4" />
  <path
     d="M 98.111896,45.564262 54.454487,1.9068532 a 6.4372101,6.4372101 0 0 0 -9.10584,0 l -9.062091,9.0620918 11.499482,11.499482 c 2.674879,-0.937457 5.737241,-0.296861 7.868395,1.834293 a 7.6559052,7.6559052 0 0 1 1.815544,7.915268 l 11.083875,11.083876 c 2.68113,-0.924958 5.77474,-0.32811 7.915269,1.818668 A 7.6640296,7.6640296 0 1 1 65.628984,55.957544 c -2.249899,-2.249899 -2.806124,-5.562249 -1.668675,-8.334 L 53.623275,37.28651 v 27.2019 a 7.8121482,7.8121482 0 0 1 2.031158,1.449935 7.6629247,7.6629247 0 1 1 -10.837012,10.837012 7.6559052,7.6559052 0 0 1 0,-10.837012 c 0.740592,-0.737467 1.56243,-1.296817 2.509262,-1.6718 V 36.811531 c -0.912459,-0.374983 -1.76867,-0.928083 -2.509262,-1.671799 A 7.6559052,7.6559052 0 0 1 43.167496,26.761984 L 31.824256,15.424995 1.8881043,45.329898 a 6.4372101,6.4372101 0 0 0 0,9.108965 L 45.548638,98.093147 a 6.4372101,6.4372101 0 0 0 9.10584,0 L 98.111896,54.704476 a 6.4372101,6.4372101 0 0 0 0,-9.108965"
     fill="#f03c2e"
     id="path2"
     style="stroke-width:3.12486" />
</svg>
