<?xml version="1.0" encoding="UTF-8" standalone="no"?>
<!-- Generator: Adobe Illustrator 19.0.0, SVG Export Plug-In . SVG Version: 6.00 Build 0)  -->

<svg
   version="1.1"
   id="Layer_1"
   x="0px"
   y="0px"
   viewBox="0 0 100 100"
   xml:space="preserve"
   sodipodi:docname="love-svgrepo-com.svg"
   width="100"
   height="100"
   inkscape:version="1.1.1 (3bf5ae0d25, 2021-09-20)"
   inkscape:export-filename="D:\daemon_website\assets\love.png"
   inkscape:export-xdpi="96"
   inkscape:export-ydpi="96"
   xmlns:inkscape="http://www.inkscape.org/namespaces/inkscape"
   xmlns:sodipodi="http://sodipodi.sourceforge.net/DTD/sodipodi-0.dtd"
   xmlns="http://www.w3.org/2000/svg"
   xmlns:svg="http://www.w3.org/2000/svg"><defs
   id="defs57" /><sodipodi:namedview
   id="namedview55"
   pagecolor="#ffffff"
   bordercolor="#666666"
   borderopacity="1.0"
   inkscape:pageshadow="2"
   inkscape:pageopacity="0.0"
   inkscape:pagecheckerboard="0"
   showgrid="false"
   inkscape:zoom="1.0250197"
   inkscape:cx="196.58159"
   inkscape:cy="300.96982"
   inkscape:window-width="1920"
   inkscape:window-height="1013"
   inkscape:window-x="-9"
   inkscape:window-y="-9"
   inkscape:window-maximized="1"
   inkscape:current-layer="Layer_1" />






<g
   id="g885"
   transform="scale(0.2016129)"><path
     style="fill:#ffc200"
     d="m 216,356 c 0,-57.816 38.816,-98.192 94.4,-98.192 17.572,0 36.04,4.268 53.648,12.372 0.516,-0.236 1.024,-0.468 1.54,-0.7 1.368,-0.608 2.724,-1.18 4.072,-1.74 1.108,-0.452 2.208,-0.9 3.304,-1.312 1.364,-0.524 2.736,-1.008 4.1,-1.484 1.092,-0.384 2.204,-0.76 3.308,-1.112 1.396,-0.44 2.78,-0.84 4.176,-1.24 l 0.636,-0.18 c 0.88,-0.248 1.752,-0.492 2.624,-0.72 1.44,-0.368 2.872,-0.684 4.3,-1 l 0.864,-0.192 c 0.768,-0.172 1.544,-0.344 2.308,-0.496 1.336,-0.256 2.672,-0.468 4.008,-0.676 l 1.34,-0.216 c 0.716,-0.116 1.424,-0.236 2.144,-0.324 1.588,-0.208 3.196,-0.348 4.796,-0.492 l 0.916,-0.088 c 0.576,-0.06 1.144,-0.116 1.716,-0.156 2.472,-0.164 4.944,-0.252 7.4,-0.252 31.508,0 57.608,12.976 74.328,34.752 C 494.556,278.092 496,263.22 496,248 496,111.032 384.96,0 248,0 111.04,0 0,111.032 0,248 c 0,136.968 111.04,248 248,248 21.548,0 42.444,-2.756 62.376,-7.92 C 267.704,462.236 216,416.62 216,356 Z"
     id="path2" /><path
     style="fill:#f2b800"
     d="m 229.368,408.376 c -41.864,-4.52 -80.592,-24.164 -108.336,-55.444 -4.224,-4.76 -10.288,-7.5 -16.66,-7.5 -5.448,0 -10.692,1.992 -14.768,5.608 -4.44,3.944 -7.084,9.384 -7.444,15.32 -0.356,5.936 1.624,11.66 5.572,16.1 40.252,45.408 98.672,71.452 160.276,71.452 5.432,0 10.828,-0.276 16.204,-0.68 -13.74,-13.024 -26.084,-28.028 -34.844,-44.856 z"
     id="path4" /><g
     id="g10">
	<path
   style="fill:#263740"
   d="m 196,196 c -6.624,0 -12,-5.372 -12,-12 0,-19.848 -16.148,-36 -36,-36 -19.852,0 -36,16.152 -36,36 0,6.628 -5.376,12 -12,12 -6.624,0 -12,-5.372 -12,-12 0,-33.084 26.916,-60 60,-60 33.084,0 60,26.916 60,60 0,6.628 -5.376,12 -12,12 z"
   id="path6" />
	<path
   style="fill:#263740"
   d="m 396,196 c -6.624,0 -12,-5.372 -12,-12 0,-19.848 -16.148,-36 -36,-36 -19.852,0 -36,16.152 -36,36 0,6.628 -5.376,12 -12,12 -6.624,0 -12,-5.372 -12,-12 0,-33.084 26.916,-60 60,-60 33.084,0 60,26.916 60,60 0,6.628 -5.376,12 -12,12 z"
   id="path8" />
</g><path
     style="fill:#e16b5a"
     d="m 364,288 c -64.428,-34.108 -132,-4.908 -132,68 0,72.908 92,128 132,140 40,-12 132,-67.092 132,-140 0,-72.908 -67.572,-102.108 -132,-68 z"
     id="path12" /><path
     style="fill:#cc6152"
     d="M 364,288 V 496 C 404,484 496,428.908 496,356 496,283.092 428.428,253.892 364,288 Z"
     id="path14" /><g
     id="g20">
	<path
   style="fill:#f2b800"
   d="m 456,248 c 0,5.672 -0.256,11.28 -0.632,16.856 14.704,5.932 27.128,15.416 36.564,27.7 C 494.556,278.092 496,263.22 496,248 496,111.032 384.96,0 248,0 241.256,0 234.6,0.344 228,0.872 355.592,11.068 456,117.772 456,248 Z"
   id="path16" />
	<path
   style="fill:#f2b800"
   d="m 296.984,479.464 c -21.696,8.34 -44.852,13.736 -68.984,15.664 6.6,0.528 13.256,0.872 20,0.872 21.548,0 42.444,-2.756 62.376,-7.92 -4.392,-2.66 -8.876,-5.54 -13.392,-8.616 z"
   id="path18" />
</g><path
     style="fill:#f5f5f5"
     d="m 236.2,420.1 c -47.652,-3.056 -92.152,-24.432 -123.5,-59.788 -4.076,-4.6 -11.104,-5.032 -15.712,-0.944 -4.596,4.08 -5.02,11.112 -0.94,15.712 38.144,43.032 93.532,67.704 151.952,67.704 1.928,0 3.852,-0.092 5.772,-0.148 -6.436,-7.044 -12.388,-14.552 -17.572,-22.536 z"
     id="path22" /></g>
<g
   id="g24">
</g>
<g
   id="g26">
</g>
<g
   id="g28">
</g>
<g
   id="g30">
</g>
<g
   id="g32">
</g>
<g
   id="g34">
</g>
<g
   id="g36">
</g>
<g
   id="g38">
</g>
<g
   id="g40">
</g>
<g
   id="g42">
</g>
<g
   id="g44">
</g>
<g
   id="g46">
</g>
<g
   id="g48">
</g>
<g
   id="g50">
</g>
<g
   id="g52">
</g>
</svg>
