<?xml version="1.0" encoding="UTF-8" standalone="no"?>
<!-- Generator: Adobe Illustrator 19.0.0, SVG Export Plug-In . SVG Version: 6.00 Build 0)  -->

<svg
   version="1.1"
   id="Layer_1"
   x="0px"
   y="0px"
   viewBox="0 0 99.999998 99.999998"
   xml:space="preserve"
   sodipodi:docname="prize-svgrepo-com.svg"
   width="100"
   height="100"
   inkscape:version="1.1.1 (3bf5ae0d25, 2021-09-20)"
   inkscape:export-filename="D:\daemon_website\assets\prize.png"
   inkscape:export-xdpi="96"
   inkscape:export-ydpi="96"
   xmlns:inkscape="http://www.inkscape.org/namespaces/inkscape"
   xmlns:sodipodi="http://sodipodi.sourceforge.net/DTD/sodipodi-0.dtd"
   xmlns="http://www.w3.org/2000/svg"
   xmlns:svg="http://www.w3.org/2000/svg"><defs
   id="defs57" /><sodipodi:namedview
   id="namedview55"
   pagecolor="#ffffff"
   bordercolor="#666666"
   borderopacity="1.0"
   inkscape:pageshadow="2"
   inkscape:pageopacity="0.0"
   inkscape:pagecheckerboard="0"
   showgrid="false"
   inkscape:zoom="1.2706053"
   inkscape:cx="77.522104"
   inkscape:cy="183.77067"
   inkscape:window-width="1920"
   inkscape:window-height="1013"
   inkscape:window-x="-9"
   inkscape:window-y="-9"
   inkscape:window-maximized="1"
   inkscape:current-layer="Layer_1" />
<g
   id="g22"
   transform="matrix(0.35343713,0,0,0.35343713,-3.973473e-5,-7.9261912e-5)">
	<path
   style="fill:#f59d00"
   d="m 155.728,13.898 v 0 c 12.114,-13.418 34.368,-4.2 33.446,13.854 v 0 c -0.581,11.369 8.797,20.747 20.166,20.166 v 0 c 18.054,-0.922 27.272,21.332 13.854,33.446 v 0 c -8.45,7.629 -8.45,20.891 0,28.519 v 0 c 13.418,12.114 4.2,34.368 -13.854,33.446 v 0 c -11.369,-0.581 -20.747,8.797 -20.166,20.166 v 0 c 0.922,18.054 -21.332,27.272 -33.446,13.854 v 0 c -7.629,-8.45 -20.891,-8.45 -28.519,0 v 0 c -12.114,13.418 -34.368,4.2 -33.446,-13.854 v 0 c 0.581,-11.369 -8.797,-20.747 -20.166,-20.166 v 0 C 55.543,144.251 46.325,121.997 59.743,109.883 v 0 c 8.45,-7.629 8.45,-20.891 0,-28.519 v 0 C 46.325,69.25 55.543,46.996 73.597,47.918 v 0 c 11.369,0.581 20.747,-8.797 20.166,-20.166 v 0 C 92.84,9.698 115.095,0.48 127.209,13.898 v 0 c 7.628,8.45 20.89,8.45 28.519,0 z"
   id="path2" />
	<path
   style="fill:#ffd155"
   d="m 197.919,146.389 c -5.533,3.592 -9.111,9.954 -8.745,17.107 v 0 c 0.922,18.054 -21.332,27.272 -33.446,13.854 v 0 c -1.981,-2.194 -4.345,-3.805 -6.888,-4.86 l 67.474,102.948 10.718,-37.75 37.75,10.718 z"
   id="path4" />
	<path
   style="fill:#ffd155"
   d="m 127.209,177.349 v 0 c -12.114,13.418 -34.368,4.2 -33.446,-13.854 v 0 c 0.365,-7.152 -3.212,-13.514 -8.745,-17.107 l -66.863,102.017 37.75,-10.718 10.718,37.75 67.474,-102.948 c -2.543,1.055 -4.908,2.666 -6.888,4.86 z"
   id="path6" />
	<circle
   style="fill:#ffd155"
   cx="141.468"
   cy="95.624001"
   r="48.528"
   id="circle8" />
	<g
   id="g20">
		<path
   style="fill:#f59d00"
   d="m 141.468,75.546 -20.5,17.84 v 22.316 c 4.52,0 36.152,0 41,0 V 93.386 Z"
   id="path10" />
		<g
   id="g18">
			<path
   style="fill:#e87e04"
   d="M 271.054,244.293 209.797,150.83 c 24.635,0.522 36.81,-29.915 18.422,-46.514 C 223.056,99.654 223.063,91.585 228.22,86.93 246.864,70.097 234.06,39.146 208.957,40.427 202.063,40.79 196.308,35.113 196.664,28.133 197.946,3.032 166.99,-9.77 150.162,8.872 c 0,0 0,0 -0.001,0 -4.652,5.153 -12.72,5.166 -17.386,0 C 115.937,-9.78 84.991,3.048 86.272,28.134 86.625,35.061 80.945,40.773 73.979,40.427 48.896,39.135 36.066,70.092 54.717,86.93 c 5.153,4.653 5.166,12.721 0,17.386 -18.367,16.58 -6.243,47.038 18.422,46.514 l -61.257,93.462 c -3.8,5.798 1.663,13.213 8.321,11.326 l 30.535,-8.669 8.67,30.536 c 1.754,6.178 9.978,7.419 13.487,2.063 l 66.041,-100.764 c 1.673,-0.363 3.386,-0.364 5.061,0 l 66.042,100.764 c 3.511,5.36 11.73,4.129 13.487,-2.063 l 8.67,-30.536 30.535,8.669 c 6.66,1.891 12.123,-5.528 8.323,-11.325 z M 64.768,115.45 C 76.484,104.874 76.53,86.415 64.769,75.797 56.608,68.429 62.177,54.855 73.213,55.408 c 15.835,0.798 28.844,-12.273 28.039,-28.039 -0.562,-11.007 13.008,-16.625 20.389,-8.446 10.578,11.715 29.035,11.761 39.654,0 h -10e-4 c 7.386,-8.181 20.951,-2.558 20.39,8.445 -0.805,15.756 12.198,28.842 28.039,28.04 6.066,-0.3 9.888,3.522 11.417,7.214 1.528,3.691 1.551,9.091 -2.972,13.175 -11.717,10.577 -11.762,29.036 0,39.653 8.155,7.363 2.6,20.941 -8.445,20.389 -15.738,-0.791 -28.848,12.174 -28.039,28.039 0.563,11.036 -13.007,16.624 -20.389,8.445 -10.521,-11.657 -28.983,-11.818 -39.653,0 -7.202,7.974 -20.067,2.818 -20.4,-7.331 -0.043,-1.314 1.298,-12.288 -7.777,-21.365 -5.141,-5.14 -12.474,-8.183 -20.251,-7.789 C 62.2,136.394 56.592,122.833 64.768,115.45 Z m 4.585,142.141 -6.233,-21.953 c -1.131,-3.984 -5.278,-6.298 -9.264,-5.167 l -18.405,5.226 50.285,-76.723 c 0.449,1.425 0.601,2.855 0.536,4.139 -0.811,15.883 11.824,27.99 26.57,28.122 z m 159.728,-27.119 c -3.986,-1.131 -8.133,1.181 -9.264,5.167 l -6.233,21.953 -43.49,-66.355 c 4.971,0 10.767,-1.654 15.614,-5.132 13.227,-9.492 10.292,-22.976 11.403,-26.85 0.027,-0.094 0.061,-0.186 0.091,-0.279 l 50.285,76.723 z"
   id="path12" />
			<path
   style="fill:#e87e04"
   d="m 141.468,151.651 c 30.894,0 56.027,-25.134 56.027,-56.028 0,-30.894 -25.134,-56.028 -56.027,-56.028 -30.893,0 -56.027,25.135 -56.027,56.029 0,30.894 25.134,56.027 56.027,56.027 z m 0,-97.055 c 22.623,0 41.027,18.405 41.027,41.028 0,22.623 -18.404,41.028 -41.027,41.028 -22.623,0 -41.027,-18.405 -41.027,-41.028 0,-22.623 18.404,-41.028 41.027,-41.028 z"
   id="path14" />
			<path
   style="fill:#e87e04"
   d="m 120.968,123.202 h 41 c 4.143,0 7.5,-3.358 7.5,-7.5 V 93.386 c 0,-2.17 -0.939,-4.233 -2.576,-5.658 l -20.5,-17.84 c -2.824,-2.456 -7.023,-2.456 -9.848,0 l -20.5,17.84 c -1.637,1.424 -2.576,3.488 -2.576,5.658 v 22.316 c 0,4.142 3.358,7.5 7.5,7.5 z m 7.5,-26.401 13,-11.313 13,11.313 v 11.4 h -26 z"
   id="path16" />
		</g>
	</g>
</g>
<g
   id="g24">
</g>
<g
   id="g26">
</g>
<g
   id="g28">
</g>
<g
   id="g30">
</g>
<g
   id="g32">
</g>
<g
   id="g34">
</g>
<g
   id="g36">
</g>
<g
   id="g38">
</g>
<g
   id="g40">
</g>
<g
   id="g42">
</g>
<g
   id="g44">
</g>
<g
   id="g46">
</g>
<g
   id="g48">
</g>
<g
   id="g50">
</g>
<g
   id="g52">
</g>
</svg>
