<?xml version="1.0" encoding="UTF-8"?>
<svg id="svg" width="380.24" height="380.3" version="1.1" viewBox="0 0 380.24 380.3" xmlns="http://www.w3.org/2000/svg">
 <path d="m181.79 0.42688c-33.408 3.513-60.731 26.858-68.83 58.809-1.993 7.864-2.229 11.088-2.508 34.348l-0.262 21.8-0.915 1.472c-2.006 3.225-2.405 3.29-21.885 3.579-13.318 0.198-18.058 0.405-21 0.92-63.659 11.128-88.492 85.697-43.436 130.43 17.701 17.573 34.819 23.392 68.836 23.401 19.292 5e-3 18.383-0.963 18.762 19.999 0.413 22.833 2.821 33.206 10.789 46.473 30.324 50.489 103.46 51.744 135.55 2.327 8.987-13.841 11.832-25.159 12.17-48.4 0.31-21.393-0.611-20.398 18.883-20.404 28.171-8e-3 41.363-3.036 56.771-13.029 60.434-39.2 39.861-129.3-32.197-141.01-1.498-0.244-10.554-0.572-20.124-0.73-18.195-0.3-18.812-0.365-20.738-2.158-2.314-2.154-2.24-1.412-2.521-25.273-0.282-23.921-0.462-26.213-2.735-34.904-9.603-36.723-46.239-61.687-84.606-57.653m20.6 30.557c51.679 13.47 47.669 84.89-5.212 92.823-10.697 1.605-12.988-0.375-12.988-11.223 0-8.147 1.047-10.21 5.76-11.35 0.792-0.192 3.06-0.729 5.04-1.193 17.112-4.017 25.385-22.004 16.366-35.587-9.745-14.677-32.155-14.927-41.964-0.467-4.647 6.852-4.585 6.084-4.594 56.477-8e-3 44.069-0.047 45.221-1.641 48.372-2.048 4.05-15.378 14.348-18.572 14.348-1.374 0-2.839-1.533-3.378-3.538-0.947-3.517-0.327-108.47 0.664-112.46 6.699-26.948 33.806-43.162 60.519-36.2m-97.373 119.04c5.333 0.977 6.373 2.831 6.373 11.365 0 11.646 0.27 11.488-20.2 11.84-13.391 0.23-15.329 0.346-18.062 1.083-24.123 6.5-25.041 38.315-1.338 46.387l3.2 1.09 28.4-2e-3c40.225-3e-3 32.332 3.332 79.372-33.537 41.239-32.323 45.133-34.714 61.428-37.719 5.998-1.106 59.552-1.129 65.384-0.027 52.715 9.953 54.246 81.35 2.016 93.981-4.097 0.99-34.384 1.57-37.547 0.718-4.567-1.229-6.296-6.117-5.286-14.943 0.895-7.82 1.296-7.978 21.033-8.302 12.497-0.206 15.622-0.37 17.575-0.924 24.857-7.054 24.297-40.501-0.786-46.93-2.542-0.652-5.16-0.715-29.589-0.715-39.489 0-33.168-2.654-78.6 32.998-12.21 9.582-24.241 19.016-26.735 20.966-12.287 9.601-22.507 14.85-33.665 17.292-5.155 1.128-63.145 1.141-68.4 0.016-52.082-11.155-52.25-83.189-0.22-93.873 5.492-1.128 30.711-1.668 35.647-0.764m131.36 62.956c2.726 1.411 2.616-0.654 2.614 49.009-2e-3 49.285 0.086 47.387-2.59 55.689-13.17 40.856-71.133 44.893-90.597 6.311-4.306-8.534-5.079-13.517-4.926-31.741 0.159-18.901 0.133-18.859 11.915-18.859 11.599 0 11.633 0.055 12.025 19.2 0.364 17.817 1.249 21.057 7.449 27.26 13.552 13.558 36.238 7.417 41.603-11.26 0.624-2.171 0.71-6.047 0.906-40.641l0.217-38.241 1.401-2.75c2.277-4.474 14.847-14.349 18.519-14.55 0.176-0.01 0.834 0.248 1.464 0.573" fill="#5d7c05" fill-rule="evenodd"/>
</svg>
